<svg xmlns="http://www.w3.org/2000/svg" xmlns:xlink="http://www.w3.org/1999/xlink" viewBox="0 0 250 250"><defs><style>.cls-1{fill:url(#radial-gradient);}</style><radialGradient id="radial-gradient" cx="143.8" cy="158.2" fx="324.93973212035075" fy="158.20006103515516" r="182.97" gradientUnits="userSpaceOnUse"><stop offset="0.13" stop-color="#feda77"/><stop offset="0.37" stop-color="#f58529"/><stop offset="0.59" stop-color="#dd247b"/><stop offset="0.84" stop-color="#8134af"/><stop offset="1" stop-color="#515bd4"/></radialGradient></defs><g id="Layer_2" data-name="Layer 2"><g id="Instagram"><path class="cls-1" d="M224.77,0H25.23A25.22,25.22,0,0,0,0,25.23V224.77A25.22,25.22,0,0,0,25.23,250H224.77A25.22,25.22,0,0,0,250,224.77V25.23A25.22,25.22,0,0,0,224.77,0ZM124.5,192c-87.41-1.49-87.4-131.52,0-133C211.91,60.49,211.9,190.52,124.5,192Zm67-114c-24.32-.42-24.31-36.59,0-37C215.82,41.42,215.81,77.59,191.5,78Z"/></g></g></svg>