<svg xmlns="http://www.w3.org/2000/svg" viewBox="0 0 554.99 575.92"><defs><style>.cls-1{fill:#fff;}</style></defs><g id="Layer_2" data-name="Layer 2"><g id="Gecko"><g id="Front_Background_Leg" data-name="Front Background Leg"><path class="cls-1" d="M187.34,86.14c9.25-20.35,14.15-25.72,11.86-26-30.74-4.29-39.42,15.54-53.2,7.66-12.42-7.11-39.31,11.69-39-4.55.32-18.23,28.21,2,34.9-10.58,6.17-11.57-38-10.21-30.07-23.32,9.66-15.87,27.91,18.67,38.47,12.1,13.95-8.7-9-32.38,6-38.32s-.05,34.3,10.26,35c8.12.59,17.53-39.71,29.62-29.35,10,8.55-17.37,21.94-18.5,37-.53,7.06,34.33-24.62,59.11-17.36,9.63,2.82,12.73,12.12,11.57,39.23-1,23.41-8.06,49.22-46.18,70.31"/><path d="M187.34,86.14a108.63,108.63,0,0,1,6.87-18.69c.69-1.51,1.4-3,2.09-4.45.33-.72.68-1.45.89-2,.05-.14.09-.28.11-.36s0-.11,0,.17a1.79,1.79,0,0,0,.24.81,1.94,1.94,0,0,0,.88.84,1.92,1.92,0,0,0,.42.15l-.3,0c-1.57-.19-3.15-.32-4.72-.38s-3.15-.13-4.72-.09a55.32,55.32,0,0,0-18.57,3.35c-3,1.09-6,2.43-9.19,3.59a20.91,20.91,0,0,1-10.24,1.55,16.7,16.7,0,0,1-5-1.63l-.57-.3-.5-.25c-.34-.15-.69-.3-1.05-.42a12.48,12.48,0,0,0-2.21-.52,19.68,19.68,0,0,0-4.67-.07,38.66,38.66,0,0,0-4.72.77c-3.15.7-6.27,1.64-9.48,2.52-1.61.44-3.24.87-4.94,1.19a21.92,21.92,0,0,1-5.42.49,11,11,0,0,1-3.11-.6,7.06,7.06,0,0,1-3-2.1,8.09,8.09,0,0,1-1.57-3.18,12.7,12.7,0,0,1-.34-3,12.57,12.57,0,0,1,1.29-5.92A7.8,7.8,0,0,1,108,54.85a8.75,8.75,0,0,1,3-1.45,15.76,15.76,0,0,1,5.66-.31,46.63,46.63,0,0,1,5.07.83,92.64,92.64,0,0,0,9.59,1.82,17.36,17.36,0,0,0,4.62-.1,7,7,0,0,0,3.83-1.87,4.84,4.84,0,0,0,1.64-3.54c-.14-1.12-1.27-2.15-2.59-2.88a37.46,37.46,0,0,0-9-3.13c-3.17-.78-6.4-1.47-9.65-2.39a42,42,0,0,1-4.91-1.69A15.42,15.42,0,0,1,110.39,37a7.24,7.24,0,0,1-1.83-3.19,6.66,6.66,0,0,1,.18-3.8,11.2,11.2,0,0,1,1.45-2.81,13.14,13.14,0,0,1,2-2.3,9.21,9.21,0,0,1,2.88-1.71,8.16,8.16,0,0,1,3.36-.47,13,13,0,0,1,5.62,1.8,45.48,45.48,0,0,1,8.13,6.35c2.44,2.25,4.79,4.53,7.3,6.54a26.73,26.73,0,0,0,3.92,2.65,8.24,8.24,0,0,0,4.19,1.15,4.62,4.62,0,0,0,1.92-.55,9.87,9.87,0,0,0,1.77-1.33,7.58,7.58,0,0,0,2.16-3.74c.72-2.88.08-6.07-.79-9.13s-2.08-6.14-3-9.43a27.64,27.64,0,0,1-1-5.24,12,12,0,0,1,.94-6,9.46,9.46,0,0,1,2-2.7,11.17,11.17,0,0,1,2.59-1.82A13,13,0,0,1,157,.23a7.24,7.24,0,0,1,3.7,0A5.86,5.86,0,0,1,164,2.74a9.85,9.85,0,0,1,1.19,3.05,21.83,21.83,0,0,1,.4,5.43c-.1,3.45-.59,6.74-1,10-.21,1.63-.4,3.25-.55,4.87a41.19,41.19,0,0,0-.21,4.82,12.6,12.6,0,0,0,.7,4.47,2.83,2.83,0,0,0,1.1,1.43,2,2,0,0,0,.79.28,1.47,1.47,0,0,0,.78-.06A4.42,4.42,0,0,0,168.82,36a14.09,14.09,0,0,0,1.48-1.75,38.36,38.36,0,0,0,2.51-4.1c3.1-5.73,5.43-11.91,9.09-17.75a26.52,26.52,0,0,1,3.26-4.24,11.16,11.16,0,0,1,5.22-3.29,7.39,7.39,0,0,1,3.62,0,9.07,9.07,0,0,1,3,1.48,10.13,10.13,0,0,1,2.3,2.28A7.51,7.51,0,0,1,200.69,12a8.1,8.1,0,0,1-.28,3.44,13.92,13.92,0,0,1-1.2,2.76A26.71,26.71,0,0,1,196,22.49c-2.26,2.59-4.68,4.84-7,7.16a68.08,68.08,0,0,0-6.45,7.2,19.56,19.56,0,0,0-3.91,8.39l-.07.57c0,.18,0,.24,0,.23s-.14-.18-.18-.17.05,0,.18,0a7.48,7.48,0,0,0,2.06-.6c1.47-.6,2.91-1.4,4.35-2.16,2.87-1.59,5.69-3.3,8.54-5a170.69,170.69,0,0,1,17.66-9.4,74.61,74.61,0,0,1,9.7-3.42,36.72,36.72,0,0,1,10.63-1.7,23.17,23.17,0,0,1,5.58.78,17.9,17.9,0,0,1,5.63,2.52,14.85,14.85,0,0,1,4.34,4.67A19.37,19.37,0,0,1,249.27,37a49,49,0,0,1,1.14,10.49c.09,3.4.09,6.74.1,10.08s-.08,6.64-.15,10-.25,6.69-.58,10a75.6,75.6,0,0,1-4.4,19.9,61.51,61.51,0,0,1-10.45,17.66,67.58,67.58,0,0,1-7.12,7.33,73.47,73.47,0,0,1-8,6.22,85.67,85.67,0,0,1-17.7,9.28c5.27-4,10.47-8,15.25-12.39a103.11,103.11,0,0,0,13-14.06A78.47,78.47,0,0,0,245.2,77a88,88,0,0,0,1.05-9.63c.21-3.26.32-6.53.29-9.78a60.67,60.67,0,0,0-.71-9.65,34.56,34.56,0,0,0-2.57-8.86,14.89,14.89,0,0,0-2.12-3.41,9.82,9.82,0,0,0-2.64-2.22,13.7,13.7,0,0,0-3.42-1.32c-1.34-.35-2.72-.63-4.14-.86a38.79,38.79,0,0,0-9-.47,51.67,51.67,0,0,0-9.32,1.82,98.86,98.86,0,0,0-18.1,7.25l-4.37,2.28-4.33,2.39c-1.44.82-2.89,1.61-4.43,2.35a8.67,8.67,0,0,1-2.62.89,2.26,2.26,0,0,1-1-.12,1.67,1.67,0,0,1-1-1,2.44,2.44,0,0,1-.09-1l.05-.66a23.69,23.69,0,0,1,3.73-9.62,78.75,78.75,0,0,1,6-8.12c2.11-2.56,4.26-5,6.17-7.57A28,28,0,0,0,195,15.9a5.8,5.8,0,0,0,.79-3.23,2.59,2.59,0,0,0-.51-1.16,6.46,6.46,0,0,0-1.21-1.17,4.37,4.37,0,0,0-1.35-.7,2.55,2.55,0,0,0-1.26,0,6.83,6.83,0,0,0-3.08,1.83,27.53,27.53,0,0,0-3,3.36c-3.83,5-7,10.87-10.52,16.51A45.6,45.6,0,0,1,172,35.47a16.06,16.06,0,0,1-1.76,2A6.51,6.51,0,0,1,167.75,39a3.7,3.7,0,0,1-1.65.11,3.78,3.78,0,0,1-1.53-.53,5.07,5.07,0,0,1-2-2.33A16.36,16.36,0,0,1,161.49,31c-.25-3.4-.17-6.73-.14-10s.08-6.59-.11-9.72a21.72,21.72,0,0,0-.65-4.36,5,5,0,0,0-.67-1.5c-.26-.31-.37-.39-.58-.43a2.91,2.91,0,0,0-1.19.08,10.26,10.26,0,0,0-1.75.67A5.29,5.29,0,0,0,154,8a7.41,7.41,0,0,0-.75,3.64,26,26,0,0,0,.46,4.52c.53,3.12,1.36,6.34,1.93,9.68a35.5,35.5,0,0,1,.58,5.11,15.68,15.68,0,0,1-.61,5.28,10.41,10.41,0,0,1-2.88,4.61,12,12,0,0,1-2.18,1.6,6.62,6.62,0,0,1-2.77.84A11.05,11.05,0,0,1,142.46,42a30.81,30.81,0,0,1-4.43-2.6c-2.8-1.88-5.4-4-8-5.89a48.94,48.94,0,0,0-8-5.06,9.31,9.31,0,0,0-3.75-1,4,4,0,0,0-2.79,1.14,8.66,8.66,0,0,0-1.21,1.42,7,7,0,0,0-.83,1.54,2,2,0,0,0-.12,1.06,2.59,2.59,0,0,0,.59,1.05A11,11,0,0,0,117.22,36a39.87,39.87,0,0,0,4.28,1.92c3,1.19,6.1,2.24,9.22,3.38,1.56.57,3.14,1.14,4.69,1.8A29.33,29.33,0,0,1,140,45.45a11,11,0,0,1,2.12,1.77A5.1,5.1,0,0,1,143.45,50a5.29,5.29,0,0,1-.61,3,9.41,9.41,0,0,1-1.61,2.26,9.89,9.89,0,0,1-4.82,2.58,21.46,21.46,0,0,1-5.2.49c-3.43,0-6.75-.49-10-.77-1.62-.14-3.22-.24-4.74-.24a13.51,13.51,0,0,0-4.12.56,3.62,3.62,0,0,0-2.23,1.93,8.83,8.83,0,0,0-.66,3.67,4.93,4.93,0,0,0,.71,3.09,2.57,2.57,0,0,0,1,.73,6.12,6.12,0,0,0,1.7.42,22.07,22.07,0,0,0,4.41-.11c1.55-.18,3.14-.43,4.75-.7,3.22-.54,6.49-1.18,9.83-1.58a34.19,34.19,0,0,1,10.25,0,15.52,15.52,0,0,1,2.56.73c.42.16.82.35,1.23.55l1.1.61a10.56,10.56,0,0,0,4.33,1.37c3,.29,6-.9,8.92-2.19s5.84-2.9,8.91-4.28a64.79,64.79,0,0,1,9.58-3.52A47.51,47.51,0,0,1,188.93,57c1.72-.06,3.45-.05,5.16,0s3.41.31,5.1.56l.32,0a3.91,3.91,0,0,1,1,.3,3,3,0,0,1,1.33,1.25,3,3,0,0,1,.38,1.41A4.19,4.19,0,0,1,202,62c-.1.31-.2.57-.3.81a23.4,23.4,0,0,1-1.23,2.41c-.83,1.48-1.69,2.87-2.55,4.27C194.52,75,191.13,80.64,187.34,86.14Z"/></g><g id="Back_Background_Leg" data-name="Back Background Leg"><path class="cls-1" d="M482.44,158.22c-24.25-23.16-20-32-15.79-33.48,5.36-1.81,12.94,1.71,19.49,6.58,11.4,8.49,7,35.57,19.3,32.5,14.91-3.73-12-31.12-7.06-36.85,6.27-7.28,30,24.36,33.55,10.12s-28-9.07-27.22-23.83c.57-11.17,28.59-7.56,21.27-22.76-6-12.55-19.77,21.28-25.59,10.84C494.07,90,508,72.69,492.81,71.86s7,23-6.74,24.89c-5.08.68-9.64,1.23-13.13,2.55C468.41,101,444.88,71.9,435.59,77c-22.53,12.41,11.54,83.11,15.89,86"/><path d="M482.44,158.22a92.41,92.41,0,0,1-11.88-10.95,56.29,56.29,0,0,1-5-6.48,26.77,26.77,0,0,1-3.61-7.73,11.7,11.7,0,0,1-.27-4.72,7.05,7.05,0,0,1,2.72-4.62,7,7,0,0,1,2.49-1.13,13.29,13.29,0,0,1,2.39-.36,15.1,15.1,0,0,1,4.5.58,27.11,27.11,0,0,1,7.62,3.71c1.15.76,2.28,1.55,3.36,2.39L488,131.5a21,21,0,0,1,4.94,6.87,59,59,0,0,1,2.93,7.72c.82,2.58,1.52,5.17,2.32,7.64a22,22,0,0,0,2.89,6.48,3.38,3.38,0,0,0,1.85,1.3,4.75,4.75,0,0,0,2.53-.31,2.94,2.94,0,0,0,1.73-1.24,4.4,4.4,0,0,0,.38-2.46,26.35,26.35,0,0,0-2-7c-1-2.39-2.1-4.79-3.26-7.19s-2.37-4.81-3.47-7.31a33.08,33.08,0,0,1-1.51-3.87,8.38,8.38,0,0,1-.4-4.55,3.87,3.87,0,0,1,.66-1.25,4.37,4.37,0,0,1,1-.86,4.56,4.56,0,0,1,2.47-.63,11.29,11.29,0,0,1,4.25,1.19,63.27,63.27,0,0,1,7.1,4.12c2.25,1.48,4.5,2.94,6.73,4.33a39.28,39.28,0,0,0,6.68,3.48,4.9,4.9,0,0,0,2.57.4.86.86,0,0,0,.44-.29,3.23,3.23,0,0,0,.47-.88,7.35,7.35,0,0,0,.35-1.4,5.43,5.43,0,0,0,0-1.32,3.78,3.78,0,0,0-1-2.16c-1.25-1.43-3.57-2.56-5.9-3.56s-4.9-1.92-7.43-3a32.89,32.89,0,0,1-7.4-4,11.41,11.41,0,0,1-3-3.27,9.1,9.1,0,0,1-1.24-4.31,7.52,7.52,0,0,1,1-4.42,10.68,10.68,0,0,1,3.13-3.15,47.58,47.58,0,0,1,7.36-3.79,43.75,43.75,0,0,0,6.8-3.53,7.88,7.88,0,0,0,2.21-2.17,3.67,3.67,0,0,0,.53-2.34A9.13,9.13,0,0,0,523.9,92a7.56,7.56,0,0,0-.69-1.27,2.21,2.21,0,0,0-.51-.51c-.07,0-.12-.09-.42,0a3.6,3.6,0,0,0-1.15.44,19.27,19.27,0,0,0-2.83,2.07c-1.91,1.66-3.79,3.56-5.72,5.44-1,.94-1.94,1.91-3,2.82a22.43,22.43,0,0,1-3.39,2.59,7.15,7.15,0,0,1-2.23.86,3.72,3.72,0,0,1-2.65-.48,5.31,5.31,0,0,1-1.68-1.81,13,13,0,0,1-.95-2,21.63,21.63,0,0,1-1.28-8.34c0-2.78.33-5.51.54-8.13.11-1.31.17-2.61.16-3.81a9.16,9.16,0,0,0-.49-3.14,2.83,2.83,0,0,0-1.48-1.59,8.52,8.52,0,0,0-2.89-.69,7.51,7.51,0,0,0-2.9.12,1.92,1.92,0,0,0-.53.26,1.32,1.32,0,0,0-.29.7,10.1,10.1,0,0,0,.17,3.2c.21,1.22.5,2.49.82,3.79s.64,2.61.91,4a22.94,22.94,0,0,1,.58,4.23A7.4,7.4,0,0,1,491,95.25a5.25,5.25,0,0,1-1.88,1.67,7.8,7.8,0,0,1-2.2.73l-4,.55c-1.31.22-2.62.42-3.9.72a30.35,30.35,0,0,0-3.74,1.06c-.6.21-1.18.46-1.74.71a3.3,3.3,0,0,1-1.9.13,7.22,7.22,0,0,1-1.26-.39,21.56,21.56,0,0,1-3.81-2.16c-1.15-.78-2.25-1.58-3.34-2.39-4.32-3.26-8.58-6.49-12.92-9.36-1.08-.73-2.15-1.43-3.23-2.09s-2.14-1.32-3.2-1.88a28.28,28.28,0,0,0-3.09-1.46,8.57,8.57,0,0,0-2.49-.64,2.1,2.1,0,0,0-.59,0s-.05,0-.07,0h0s0,0-.08,0l-.59.34a8.75,8.75,0,0,0-2,1.83,14.14,14.14,0,0,0-2.54,5.68c-1,4.49-.88,9.64-.33,14.7,1.2,10.21,4,20.47,7.25,30.53q1.23,3.78,2.6,7.52c.89,2.5,1.81,5,2.8,7.46s2,4.94,3.07,7.37c.55,1.21,1.11,2.42,1.69,3.62.31.59.61,1.18.94,1.76a7.68,7.68,0,0,0,1.15,1.62,7.18,7.18,0,0,1-1.44-1.42c-.43-.52-.83-1.07-1.23-1.61-.79-1.09-1.54-2.21-2.25-3.35-1.44-2.28-2.82-4.6-4.11-7s-2.54-4.75-3.74-7.16-2.32-4.87-3.42-7.34c-2.21-4.93-4.14-10-5.87-15.15a109.46,109.46,0,0,1-4.12-15.93c-.9-5.48-1.46-11.18-.38-17.2A21.32,21.32,0,0,1,428.65,78a16.55,16.55,0,0,1,3.77-3.65l1.12-.71a6.94,6.94,0,0,1,.78-.4,9,9,0,0,1,.86-.34,10,10,0,0,1,3.36-.46,14.87,14.87,0,0,1,5.25,1.3,24.83,24.83,0,0,1,4,2.21,53.39,53.39,0,0,1,6.65,5.28c4,3.75,7.68,7.73,11.5,11.38,1,.92,1.91,1.81,2.88,2.66a23.46,23.46,0,0,0,2.89,2.23,3.61,3.61,0,0,0,.6.32c.17.08.24.06.08.13.69-.2,1.38-.38,2.07-.52,1.37-.3,2.73-.49,4.08-.68l4-.5,2-.26c.65-.09,1.36-.18,1.92-.3a3.79,3.79,0,0,0,2.6-1.6,5,5,0,0,0,.35-3.15A36.74,36.74,0,0,0,487,83.58c-.49-1.25-1-2.53-1.42-3.91a13.07,13.07,0,0,1-.67-4.72,6.06,6.06,0,0,1,1.06-3,5.62,5.62,0,0,1,2.7-2,12,12,0,0,1,5-.49,12.15,12.15,0,0,1,4.79,1.38,7.29,7.29,0,0,1,2.2,1.89,7.67,7.67,0,0,1,1.3,2.54,12.49,12.49,0,0,1,.29,4.8,36.28,36.28,0,0,1-.75,4.14A75.51,75.51,0,0,0,500,91.92a16.08,16.08,0,0,0,.61,7.45,5.58,5.58,0,0,0,1.79,2.76,1.61,1.61,0,0,0,1.21.15,4.15,4.15,0,0,0,1.44-.7A27.14,27.14,0,0,0,510.26,96c1.62-2.1,3.17-4.31,5.07-6.4a17.62,17.62,0,0,1,3.35-3,8.17,8.17,0,0,1,2.5-1.17,5.34,5.34,0,0,1,3.5.22,6.24,6.24,0,0,1,2.51,2,10.93,10.93,0,0,1,1.27,2.22,12.54,12.54,0,0,1,1.17,4.77,8.19,8.19,0,0,1-1.67,5.2,11.44,11.44,0,0,1-3.8,3.06,43.65,43.65,0,0,1-7.88,2.84,32.73,32.73,0,0,0-7.21,2.79,7.63,7.63,0,0,0-2.61,2.35,5.09,5.09,0,0,0-.74,3.26,6.6,6.6,0,0,0,1,3.28,9.15,9.15,0,0,0,2.56,2.43,26.22,26.22,0,0,0,7.06,2.83c2.53.71,5.14,1.27,7.79,2.08a30.32,30.32,0,0,1,4,1.5,14.35,14.35,0,0,1,4,2.66,8.46,8.46,0,0,1,2.46,4.9,9.58,9.58,0,0,1,0,2.68,11.62,11.62,0,0,1-.65,2.46,7.36,7.36,0,0,1-1.59,2.52,5.56,5.56,0,0,1-3,1.59,7.35,7.35,0,0,1-2.92-.12,13.32,13.32,0,0,1-2.31-.79,37,37,0,0,1-7.07-4.69c-2.13-1.7-4.14-3.46-6.21-5.11a41.78,41.78,0,0,0-6.43-4.45,8.55,8.55,0,0,0-3.37-1.08,2.37,2.37,0,0,0-1.36.33,2.17,2.17,0,0,0-.51.45,1.75,1.75,0,0,0-.26.51,6.27,6.27,0,0,0,.51,3.3A30.6,30.6,0,0,0,501,135c1.24,2.3,2.66,4.55,4.09,6.82s2.86,4.56,4.17,7a26,26,0,0,1,3,8.18,8.7,8.7,0,0,1-.74,5.34,7,7,0,0,1-2,2.32,9,9,0,0,1-2.44,1.29,11.25,11.25,0,0,1-2.5.58,8.56,8.56,0,0,1-2.83-.16,7.82,7.82,0,0,1-2.69-1.26,9.13,9.13,0,0,1-1.89-1.95c-1.94-2.78-2.56-5.56-3.25-8.23s-1.08-5.31-1.61-7.89a49.65,49.65,0,0,0-2-7.51,18.39,18.39,0,0,0-3.8-6.43,13,13,0,0,0-3.11-2.24c-1.13-.66-2.27-1.29-3.45-1.83a32.37,32.37,0,0,0-7.14-2.38,15.23,15.23,0,0,0-3.44-.31,5.92,5.92,0,0,0-2.74.63c-1.28.78-1.69,3-1.16,5.32a24,24,0,0,0,2.74,6.91,60.17,60.17,0,0,0,4.22,6.59C475.53,150,479,154.11,482.44,158.22Z"/></g><g id="Body"><path class="cls-1" d="M294.7,574.6c-17.8-.47,145.84,9.61,210-147,34-83-5.23-137-29.12-179.55-11.75-21-96.42-11.85-156-40.4-34.75-16.66-58.1-65.76-96.13-63.19C197.86,146.19,42.75,254,5.23,221.72c-14.48-12.47,35.61-68.39,81.19-101.66,13.44-9.81,9.08-21.63,16.32-25,10.62-4.91,69.9-9.33,80.71-20.6C190.37,67.26,276,47,381.25,88.55c73.54,29,124.75,88.57,130.68,117.17,8.14,39.22,79.77,157.88,5.77,255.88C427.81,580.64,332.7,575.6,294.7,574.6Z"/><path d="M294.69,575.1l-.95,0h-.24c-.08.86-.14-1.18,0-1h2.37c1.27,0,2.55-.08,3.82-.15,2.55-.13,5.09-.37,7.64-.63,5.07-.54,10.13-1.3,15.16-2.17a259.69,259.69,0,0,0,29.79-7,243.56,243.56,0,0,0,55.84-24.53,221.15,221.15,0,0,0,47.33-38.17A229.14,229.14,0,0,0,490.63,452a265.21,265.21,0,0,0,12.67-27.65,180.57,180.57,0,0,0,8.87-28.93,148.41,148.41,0,0,0,3.43-30,133.31,133.31,0,0,0-.7-15.08,142.45,142.45,0,0,0-2.31-14.93,160,160,0,0,0-9.11-28.82,196.28,196.28,0,0,0-13.82-27.05c-5.27-8.71-11-17.14-16.48-25.9l-2-3.23a9.09,9.09,0,0,0-1.55-1.77,19.06,19.06,0,0,0-5.1-3.2,70.82,70.82,0,0,0-13.62-4.15c-9.68-2.06-19.79-3.36-29.91-4.65s-20.36-2.51-30.57-4.05c-20.41-3.08-41-7.29-60.6-15-2.45-1-4.89-2-7.3-3.07-1.2-.54-2.41-1.08-3.6-1.67s-2.41-1.17-3.62-1.83a74.64,74.64,0,0,1-13.22-9.29c-8.05-7-14.77-14.88-21.93-22.2s-14.49-14.42-22.71-20.12-17.2-9.89-26.45-10.83a41.37,41.37,0,0,0-7-.16,24.44,24.44,0,0,0-6.32,1.59c-4.54,1.65-9.14,3.78-13.69,6-9.1,4.42-18.15,9.17-27.2,13.93-18.09,9.56-36.24,19.15-54.69,28.2s-37.25,17.55-56.87,24.22c-9.82,3.28-19.86,6.14-30.33,7.47a63,63,0,0,1-16,.18,34.27,34.27,0,0,1-8-2,24.53,24.53,0,0,1-7.3-4.36,9.71,9.71,0,0,1-3.2-5.13A14.81,14.81,0,0,1,.14,213,35,35,0,0,1,3,203.5a99,99,0,0,1,9.46-16.19,249.8,249.8,0,0,1,23.65-28.26q12.7-13.28,26.66-25.25c4.65-4,9.39-7.87,14.23-11.62,2.41-1.87,4.91-3.75,7.32-5.52A30.81,30.81,0,0,0,90,111.29a28.29,28.29,0,0,0,4-7l1.7-4.3a16.3,16.3,0,0,1,2.76-4.75,10.15,10.15,0,0,1,2.4-2,15.34,15.34,0,0,1,2.55-1.08c1.59-.52,3.11-.88,4.64-1.22,3-.67,6-1.2,9-1.71,12-2,24-3.65,35.81-6.11a158.37,158.37,0,0,0,17.36-4.51,47.42,47.42,0,0,0,8-3.36A15.11,15.11,0,0,0,181.38,73l.34-.34c.22-.2.46-.44.66-.59a12.45,12.45,0,0,1,1.2-.83,21.67,21.67,0,0,1,2.26-1.2,64.9,64.9,0,0,1,8.93-3.24c3-.87,6-1.63,9-2.31,6-1.33,12.1-2.38,18.19-3.21a319.71,319.71,0,0,1,73.69-1A332.51,332.51,0,0,1,368,75.8c5.87,2,11.67,4.07,17.44,6.34a182.32,182.32,0,0,1,17,7.79,230.81,230.81,0,0,1,31.38,20c9.92,7.4,19.44,15.21,28.69,23.32a328.07,328.07,0,0,1,26.36,25.86c4.13,4.59,8.11,9.34,11.84,14.34a122.93,122.93,0,0,1,10.2,15.86,71.56,71.56,0,0,1,4,8.84c.57,1.56,1.1,3.14,1.53,4.8l.56,2.36c.15.68.31,1.35.5,2,1.46,5.51,3.52,11.15,5.57,16.78,4.19,11.27,8.53,22.67,12.51,34.22s7.62,23.27,10.65,35.18c6,23.78,9.69,48.47,8.6,73.24a178.75,178.75,0,0,1-5.37,36.71,162.77,162.77,0,0,1-13.22,34.64,171.25,171.25,0,0,1-9.43,15.95c-3.44,5.14-7.21,10-11,14.78-7.69,9.49-15.69,18.73-24.2,27.49A292.39,292.39,0,0,1,435,542.78a233.22,233.22,0,0,1-32.61,16.83,217.79,217.79,0,0,1-34.95,11.2,190.93,190.93,0,0,1-36.29,4.9C319,576.26,306.79,575.62,294.69,575.1Zm0-1c6.07.07,12.12.12,18.17-.1s12.07-.61,18.07-1.23a274.83,274.83,0,0,0,35.55-6,227.34,227.34,0,0,0,66-28,263.72,263.72,0,0,0,29.18-21.13,309.56,309.56,0,0,0,26.23-24.74,347.75,347.75,0,0,0,23.26-27.6c3.63-4.84,7.18-9.61,10.41-14.61a166.83,166.83,0,0,0,8.78-15.51c10.67-21.26,15.9-44.94,16.4-68.66s-3.4-47.52-9.7-70.58c-3.14-11.54-6.94-22.92-11-34.26s-8.49-22.55-12.66-34c-2.08-5.76-4.11-11.55-5.71-17.78-.21-.78-.39-1.58-.56-2.38l-.46-2.07a39.81,39.81,0,0,0-1.16-3.89,71.67,71.67,0,0,0-3.32-7.79,153,153,0,0,0-19.64-29.21,203.28,203.28,0,0,0-25.34-25.22,200,200,0,0,0-29.38-20.42C417.56,113,406.84,107.81,396.08,103c-5.38-2.43-10.81-4.71-16.26-6.93s-11.06-4.34-16.65-6.33q-16.8-6-34.08-10.52c-11.51-3.06-23.18-5.51-34.94-7.48a334.07,334.07,0,0,0-35.6-3.94,264.77,264.77,0,0,0-35.85.32c-6,.48-11.91,1.15-17.77,2.19-2.93.52-5.84,1.11-8.71,1.83A60.93,60.93,0,0,0,188,74.75a18.48,18.48,0,0,0-1.78.85c-.26.15-.51.3-.69.43s-.12.11-.2.16l-.48.45a19.89,19.89,0,0,1-4.3,2.89A55.9,55.9,0,0,1,171.64,83c-5.95,1.81-11.93,3.11-17.91,4.31-12,2.4-24,4.26-35.84,6.52-3,.57-5.9,1.16-8.77,1.86-1.42.36-2.85.74-4.12,1.2a5,5,0,0,0-2.67,1.68c-1.25,1.56-1.76,4.58-2.53,7.61a31.65,31.65,0,0,1-3.73,9.36,27.49,27.49,0,0,1-7,7.55c-2.47,1.82-4.83,3.57-7.22,5.41q-7.12,5.47-14,11.32c-9.16,7.76-18,15.91-26.45,24.43-4.23,4.26-8.35,8.62-12.31,13.1s-7.81,9-11.37,13.81A96.9,96.9,0,0,0,8.31,206a29.91,29.91,0,0,0-2.75,7.77,9.81,9.81,0,0,0-.06,3.53,4.58,4.58,0,0,0,1.36,2.56c3.43,2.9,8,4.41,12.74,5a57.47,57.47,0,0,0,14.62-.4c9.85-1.4,19.57-4.31,29.11-7.67,19.07-6.84,37.49-15.67,55.68-24.88s36.11-19.09,54.16-28.79c9-4.84,18.08-9.7,27.4-14.22A157.49,157.49,0,0,1,215,142.51c1.28-.46,2.58-.9,4-1.27.71-.19,1.41-.36,2.18-.5.38-.08.79-.13,1.19-.19s.89-.1,1.2-.1a43.56,43.56,0,0,1,8.39.32,47.58,47.58,0,0,1,15.66,5.16,78.82,78.82,0,0,1,13.24,8.95c8.15,6.66,15.38,14,22.91,21a194.6,194.6,0,0,0,23.6,19,115.13,115.13,0,0,0,12.53,7.4c2.09,1,4.41,2.07,6.68,3s4.59,1.88,6.92,2.74c18.68,6.91,38.52,10.88,58.55,14.05,10,1.57,20.13,2.91,30.3,4.28s20.4,2.71,30.75,5a79.88,79.88,0,0,1,15.67,4.91,29.71,29.71,0,0,1,7.79,5,16.91,16.91,0,0,1,3.28,4.16l1.78,3.45c4.68,9,9.42,18.19,13.93,27.48s8.94,18.66,12.76,28.31a182.63,182.63,0,0,1,8.94,29.81,150.85,150.85,0,0,1-.24,62A186.33,186.33,0,0,1,508,426.19a255.91,255.91,0,0,1-13.29,28A233.16,233.16,0,0,1,458.08,504a224,224,0,0,1-48.58,38,245.58,245.58,0,0,1-56.73,23.93,251.82,251.82,0,0,1-30.09,6.59c-5.07.78-10.17,1.37-15.29,1.81-2.55.23-5.12.39-7.68.53-1.28.07-2.56.12-3.85.17l-1.93,0h-.5c-.18.21,0-1.86.07-1h1.21Z"/></g><g id="Front_Foreground_Leg" data-name="Front Foreground Leg"><path class="cls-1" d="M267,102.84c41.82,12.22,54.36,35.86,60.47,58.48,7.08,26.19,6.09,36-2.68,40.81-22.59,12.52-77,24.44-78.29,28.22-2,5.93-6.52,11.51-9.74,17.81-6.88,13.49,9.51,39.15-3.46,41.26-15.71,2.56-2.8-36.75-10-40.47-9.19-4.74-17.21,37.55-27,24.58s22.23-21.15,14.83-35.83C205.53,226.59,172,246.6,172,228c0-15.35,37,8.81,37.81-4.28.82-14.22-33.52-11.45-24.31-27.19,8.21-14,21.95,20.37,35.7,16.41,7-2,12.89-3.86,17.53-2.59,2.21.61,24.52-10.91,53.57-21.83,2.16-.81-14.83-14.05-28.32-31.88"/><path d="M267,102.84a110.62,110.62,0,0,1,21.34,6.41,79.34,79.34,0,0,1,19.3,11.87,67.48,67.48,0,0,1,14.83,17.59,93.1,93.1,0,0,1,8.75,21.19c1,3.61,1.94,7.21,2.76,10.89a93.29,93.29,0,0,1,1.94,11.33,36.61,36.61,0,0,1-.54,12.38,16.84,16.84,0,0,1-3.07,6.37,17.74,17.74,0,0,1-5.38,4.54,89.91,89.91,0,0,1-10.44,4.8Q311.25,212.28,306,214c-7.07,2.34-14.17,4.42-21.27,6.42l-21.28,5.88c-3.53,1-7.05,2-10.47,3.13-.85.28-1.69.58-2.5.89a14.26,14.26,0,0,0-2.11,1l-.12.08,0,0,0-.06s.07-.1.12-.2.07-.23,0-.11l-.14.35c-.18.46-.37.92-.57,1.36a27.3,27.3,0,0,1-1.34,2.58c-2,3.31-4.32,6.16-6.3,9.23-.49.76-1,1.52-1.42,2.32a19.66,19.66,0,0,0-1.21,2.37,16.39,16.39,0,0,0-1.15,5,29.43,29.43,0,0,0,.18,5.3c.23,1.78.56,3.55.95,5.31.76,3.55,1.77,7.07,2.57,10.75a37.39,37.39,0,0,1,.85,5.78c0,.5,0,1,0,1.55s0,1.07-.13,1.63a9.72,9.72,0,0,1-1.13,3.47,8,8,0,0,1-2.91,2.82,10.3,10.3,0,0,1-3.53,1,9.18,9.18,0,0,1-3.74-.32,7.62,7.62,0,0,1-3.36-2.2,12.55,12.55,0,0,1-2.61-6.18,31.85,31.85,0,0,1-.38-5.87c.06-3.82.48-7.51.87-11.17a87.37,87.37,0,0,0,.66-10.88,10.85,10.85,0,0,0-1-4.82,1.76,1.76,0,0,0-.63-.64,2.21,2.21,0,0,0-.89-.28,2.89,2.89,0,0,0-1.87.67,13.9,13.9,0,0,0-3.22,3.94,50.38,50.38,0,0,0-2.52,4.78c-1.56,3.3-3,6.71-4.64,10.09a37.93,37.93,0,0,1-3,5,15.75,15.75,0,0,1-2.14,2.42,7.23,7.23,0,0,1-3.54,1.85,5.76,5.76,0,0,1-2.41-.09,6.75,6.75,0,0,1-2-.92,10.51,10.51,0,0,1-2.53-2.55c-.3-.48-.63-.92-.9-1.44a12.5,12.5,0,0,1-.7-1.63,9,9,0,0,1-.43-1.79L192,269l0-.93a10.2,10.2,0,0,1,.89-3.45,15.14,15.14,0,0,1,1.66-2.78,31.42,31.42,0,0,1,4-4.29c2.81-2.53,5.74-4.72,8.22-7.26a18.65,18.65,0,0,0,3.17-4.09c.21-.36.35-.75.54-1.13s.26-.78.4-1.17.16-.8.2-1.2a9.77,9.77,0,0,0,0-1.21,8.42,8.42,0,0,0-.54-2.4,5.34,5.34,0,0,0-1.18-2,6.74,6.74,0,0,0-4.35-1.76c-3.44-.29-7.06.41-10.63,1.1a104.53,104.53,0,0,1-11.07,1.95,21.15,21.15,0,0,1-6.11-.21A11.49,11.49,0,0,1,174,237a12.29,12.29,0,0,1-1.53-1.1c-.23-.23-.45-.47-.67-.71a3.83,3.83,0,0,1-.58-.76,7.6,7.6,0,0,1-.88-1.66,8.19,8.19,0,0,1-.53-1.71,14.09,14.09,0,0,1-.34-3.34,8.35,8.35,0,0,1,1-3.78,6.62,6.62,0,0,1,3.2-2.83,9.8,9.8,0,0,1,3.51-.71,19.88,19.88,0,0,1,3.13.16,42.91,42.91,0,0,1,5.66,1.23c3.63,1,7.09,2.29,10.58,3.33a43.2,43.2,0,0,0,5.22,1.29,11.68,11.68,0,0,0,5,0,2.72,2.72,0,0,0,1.59-1.14,3.8,3.8,0,0,0,.43-2.13,6.63,6.63,0,0,0-1.75-4.35c-2.3-2.42-5.73-3.79-9.11-5L192.7,212a36.18,36.18,0,0,1-5.33-2.32,16.24,16.24,0,0,1-2.64-1.77,10.26,10.26,0,0,1-2.27-2.76,8.78,8.78,0,0,1-.73-1.81,8,8,0,0,1-.23-1.93,8.54,8.54,0,0,1,.18-1.85l.2-.87c.08-.28.18-.54.27-.81a10.53,10.53,0,0,1,.65-1.52,10.65,10.65,0,0,1,.79-1.43,10.36,10.36,0,0,1,2.38-2.69,6.58,6.58,0,0,1,3.95-1.46,8,8,0,0,1,3.74.88,20.33,20.33,0,0,1,5,3.71c1.39,1.35,2.66,2.74,3.88,4.14,2.44,2.77,4.79,5.55,7.39,8A24.86,24.86,0,0,0,214,210.7a10.1,10.1,0,0,0,4.71,1.54c.4,0,.8,0,1.2-.05s.77-.11,1.22-.25c.87-.27,1.76-.51,2.64-.8l5.32-1.74a27.85,27.85,0,0,1,5.7-1.24,13.61,13.61,0,0,1,3.12.06,7,7,0,0,1,.8.13l.4.08c.12,0,.09,0,0,0a.82.82,0,0,0-.22,0l.08,0,.21-.06c.14,0,.35-.11.53-.17,1.55-.55,3.24-1.32,4.88-2.06l5-2.33c6.64-3.14,13.26-6.4,20-9.38s13.62-5.75,20.59-8.24l.65-.24.32-.12a6.21,6.21,0,0,0-.59.35,2.64,2.64,0,0,0-1,1.54,2.42,2.42,0,0,0,0,1,1.82,1.82,0,0,0,.1.39l.07.14a1.34,1.34,0,0,0-.17-.27,22,22,0,0,0-1.56-1.87c-1.18-1.31-2.43-2.65-3.69-4-2.49-2.7-5-5.42-7.4-8.27A111.53,111.53,0,0,1,264,156.67c5.28,5.22,10.59,10.24,16,15.18l8.14,7.39c1.35,1.26,2.71,2.5,4.07,3.85a27,27,0,0,1,2.08,2.28,8.64,8.64,0,0,1,.61.86,5.43,5.43,0,0,1,.37.76,4.55,4.55,0,0,1,.2.72,3.54,3.54,0,0,1,0,1.36,3.29,3.29,0,0,1-1.2,1.83,3.57,3.57,0,0,1-.9.49l-.32.13-.64.25-40.83,16.36-5.16,2c-1.75.67-3.45,1.33-5.41,1.89-.26.07-.49.14-.8.2l-.46.09-.6.06a5.48,5.48,0,0,1-.57,0,2.84,2.84,0,0,1-.36-.07l-.27-.08c-.19,0-.36-.11-.56-.14a16,16,0,0,0-2.37-.28,28.9,28.9,0,0,0-5.2.29,47.24,47.24,0,0,0-5.35,1c-.89.22-1.77.49-2.66.73-.43.13-1,.23-1.48.34a10.82,10.82,0,0,1-7.31-1.45,33.2,33.2,0,0,1-4.83-3.16c-3-2.32-5.69-4.93-8.38-7.41-1.34-1.24-2.67-2.45-4-3.56a19.22,19.22,0,0,0-4-2.66,3.6,3.6,0,0,0-1.58-.31,1.69,1.69,0,0,0-1.1.47,9.59,9.59,0,0,0-2.2,3.44c-.06.16-.14.33-.19.49l-.11.47a3.57,3.57,0,0,0-.12.88,1.11,1.11,0,0,0,0,.41c0,.13,0,.26,0,.39a3.56,3.56,0,0,0,.25.76,8.2,8.2,0,0,0,2.94,3,87.75,87.75,0,0,0,9.5,5,53.77,53.77,0,0,1,5,2.7,17.91,17.91,0,0,1,4.54,3.74,8.79,8.79,0,0,1,2.14,5.72,6,6,0,0,1-.68,3.19,4.59,4.59,0,0,1-1.19,1.33,5.3,5.3,0,0,1-1.51.78,14.83,14.83,0,0,1-6,.33q-2.85-.33-5.58-.88c-3.66-.71-7.26-1.54-10.8-2.15a44,44,0,0,0-5.2-.65,9.19,9.19,0,0,0-4.23.48,1.68,1.68,0,0,0-.85.75,3.7,3.7,0,0,0-.3,1.54,7.2,7.2,0,0,0,.83,3.84,4.74,4.74,0,0,0,3,2,20.07,20.07,0,0,0,4.87.54c3.48,0,7.13-.42,10.81-.76,1.85-.18,3.7-.36,5.59-.45a29.14,29.14,0,0,1,5.74.17c.49.06,1,.19,1.47.28s1,.28,1.46.46a7.22,7.22,0,0,1,2.63,1.78,5.89,5.89,0,0,1,1,1.31,12,12,0,0,1,.64,1.37,10.63,10.63,0,0,1,.73,3,11.43,11.43,0,0,1-1.13,5.93,25.22,25.22,0,0,1-3.16,4.9c-2.4,3-5.1,5.57-7.48,8.25a30,30,0,0,0-3.16,4,7.45,7.45,0,0,0-1.41,3.9,5.5,5.5,0,0,0,1.29,3.54,6.37,6.37,0,0,0,1.28,1.4,1.07,1.07,0,0,0,.8.27,2.91,2.91,0,0,0,1.29-.65,11.12,11.12,0,0,0,1.61-1.61,39.31,39.31,0,0,0,3-4.22c1.95-3,3.77-6.23,5.69-9.41q1.43-2.4,3-4.74a18.47,18.47,0,0,1,4-4.35,6.82,6.82,0,0,1,1.47-.77,4.48,4.48,0,0,1,1.79-.22,4.21,4.21,0,0,1,1.71.56,3.87,3.87,0,0,1,1.33,1.27,8.32,8.32,0,0,1,1.11,2.93,26.27,26.27,0,0,1,.38,2.87c.16,1.9.18,3.76.18,5.62s0,3.71,0,5.55c0,3.68,0,7.34.28,10.88a32.63,32.63,0,0,0,.76,5.09,8.34,8.34,0,0,0,1.74,3.82,2.65,2.65,0,0,0,1.21.75,4.14,4.14,0,0,0,1.72.08,6.36,6.36,0,0,0,1.74-.46,3.1,3.1,0,0,0,1-.94,8.54,8.54,0,0,0,.81-4.05,41,41,0,0,0-.36-5.19c-.84-7.14-2.56-14.6-1.74-22.27a18.63,18.63,0,0,1,1.49-5.63c.83-1.78,1.75-3.34,2.63-5,1.77-3.26,3.52-6.53,4.93-9.77.35-.81.68-1.62,1-2.42.16-.4.29-.8.42-1.21l.1-.3a2.9,2.9,0,0,1,.18-.42,2.67,2.67,0,0,1,.31-.48l.27-.31.24-.22A3.32,3.32,0,0,1,246,228a16.21,16.21,0,0,1,2.8-1.5c.89-.4,1.77-.75,2.65-1.1,3.51-1.35,7-2.52,10.51-3.69,7-2.33,14-4.55,21-6.9s13.85-4.75,20.63-7.39c3.38-1.32,6.75-2.66,10-4.12,1.64-.72,3.26-1.48,4.85-2.26s3.19-1.6,4.6-2.44a9.07,9.07,0,0,0,4.52-6.12,29.23,29.23,0,0,0,.24-9.55A147.62,147.62,0,0,0,323.53,162a96.51,96.51,0,0,0-7.37-19.78,69.3,69.3,0,0,0-12.4-16.87,87.41,87.41,0,0,0-17-13A171.32,171.32,0,0,0,267,102.84Z"/></g><g id="Back_Foreground_Leg" data-name="Back Foreground Leg"><path class="cls-1" d="M475.88,240.48c-20.62-5.9-46.13,2.77-49.19,6.74-6.23,8.08,3.8,56.13,7.6,64.73,6.61,15,39.34,18.77,32.26,31.09C458,358,433.8,320.29,425.73,323.81c-10.25,4.48,19.76,40.09,2.2,39.44s-2.57-33.1-19.94-36.92c-13.14-2.89-19.27,38.93-34.85,26.24-12.87-10.48,32.7-25.07,22.23-34.65-11.37-10.39-32.5,20.31-39.41,1.82C349.8,303.29,388,315.25,394.12,301c2.24-5.27,4.18-10,6.71-13.39,3.29-4.35-15.17-48.68-6.57-57.11,20.85-20.45,70.21-51.93,72.29-46.33"/><path d="M475.88,240.48a80.69,80.69,0,0,0-20.19.81,97.58,97.58,0,0,0-19,5c-1.5.57-2.95,1.22-4.3,1.88a16.14,16.14,0,0,0-1.83,1,2.93,2.93,0,0,0-.35.25,1.29,1.29,0,0,0-.26.21c-.05,0-.15.12-.08.07s0,0,0,0,0,.05,0,.08a.94.94,0,0,1-.09.12l-.12.31c0,.11-.09.2-.13.33l-.12.43-.12.44-.09.5c-.06.35-.14.67-.18,1-.24,1.43-.27,3-.37,4.63-.16,6.46.23,13.24.72,20s1.27,13.57,2.44,20.28c.6,3.36,1.29,6.7,2.2,10a24,24,0,0,0,1.67,4.64,16.68,16.68,0,0,0,2.87,3.91,35.18,35.18,0,0,0,8.1,5.79c3,1.63,6.07,3,9.19,4.46,1.56.73,3.13,1.46,4.69,2.3a33.57,33.57,0,0,1,4.64,2.86,13,13,0,0,1,4.1,4.65A7.92,7.92,0,0,1,470,340a9.07,9.07,0,0,1-.86,3.42,10.46,10.46,0,0,1-1.78,2.75,8.46,8.46,0,0,1-2.87,2.15,8.16,8.16,0,0,1-3.55.7,11,11,0,0,1-3.19-.62,20.83,20.83,0,0,1-5.08-2.64,50.28,50.28,0,0,1-4.23-3.31c-5.29-4.63-9.78-9.84-14.94-14.18a23,23,0,0,0-4-2.83,7.11,7.11,0,0,0-2.09-.77,2,2,0,0,0-1.71.36c-1,.65-1.21,2.15-1,3.71a21.68,21.68,0,0,0,1.27,4.71,100.4,100.4,0,0,0,4.25,9.23,96.69,96.69,0,0,1,4.35,9.54,21.46,21.46,0,0,1,1.37,5.52,9.12,9.12,0,0,1-.25,3.42,6.5,6.5,0,0,1-.9,1.86,6,6,0,0,1-1.57,1.5,7.61,7.61,0,0,1-3.51,1.19,12.08,12.08,0,0,1-3.13-.07,10.77,10.77,0,0,1-6-2.67,12.26,12.26,0,0,1-3.18-5.39,27.39,27.39,0,0,1-1-5.48c-.31-3.57-.21-7-.38-10.35s-.52-6.7-1.94-9.51a8.67,8.67,0,0,0-3-3.46,9.52,9.52,0,0,0-2.06-1.05l-1.13-.34a10.57,10.57,0,0,0-1.07-.15,6.17,6.17,0,0,0-4,1.58,18.11,18.11,0,0,0-3.23,3.61,41.64,41.64,0,0,0-2.66,4.25c-.84,1.47-1.64,3-2.43,4.5a90.42,90.42,0,0,1-5.23,9.1,23.91,23.91,0,0,1-3.68,4.27,10.88,10.88,0,0,1-5.78,2.82,10.3,10.3,0,0,1-6.44-1.56c-.44-.26-.83-.57-1.25-.85l-.61-.45-.61-.54a8.6,8.6,0,0,1-2.06-3,6.87,6.87,0,0,1-.33-3.92,8.8,8.8,0,0,1,1.34-3.14,20.77,20.77,0,0,1,3.86-4.26,83,83,0,0,1,8.56-6.14c2.88-1.87,5.76-3.7,8.41-5.74a24.91,24.91,0,0,0,3.59-3.34c1-1.18,1.8-2.61,1.59-3.8a3.29,3.29,0,0,0-.92-1.71,5.56,5.56,0,0,0-.86-.72,4.48,4.48,0,0,0-1-.6,7.48,7.48,0,0,0-4.39-.75c-3.12.38-6.14,1.94-9,3.62s-5.77,3.62-8.94,5.29a24.07,24.07,0,0,1-5.27,2,11.92,11.92,0,0,1-3.16.29,8.44,8.44,0,0,1-3.38-.85,10.73,10.73,0,0,1-4.52-4.76,13.46,13.46,0,0,1-1.6-6.08l0-.91c.07-.32.15-.64.23-.95a6.76,6.76,0,0,1,.78-1.82,8,8,0,0,1,1.23-1.47,8.71,8.71,0,0,1,1.42-1,16.9,16.9,0,0,1,5.63-1.88,85,85,0,0,1,10.5-.77,79.37,79.37,0,0,0,10.07-.8c3.22-.6,6.54-1.52,8.73-3.73a10.3,10.3,0,0,0,2.36-4.07c.62-1.6,1.1-3.26,1.59-4.95a36.53,36.53,0,0,1,1.8-5.07,16.58,16.58,0,0,1,1.35-2.47c.11-.15.36-.56.14-.23-.07.12-.07.12-.07.06a7.26,7.26,0,0,0,0-.75,29.06,29.06,0,0,0-.88-4.56c-.4-1.6-.87-3.22-1.34-4.84l-3-9.81a144.38,144.38,0,0,1-5-20.4c-.24-1.79-.44-3.61-.52-5.49a27.55,27.55,0,0,1,.3-5.94,16.24,16.24,0,0,1,.91-3.32,10.36,10.36,0,0,1,2.27-3.5c1.35-1.28,2.62-2.41,4-3.58,5.33-4.57,10.8-8.84,16.47-12.82s11.41-7.81,17.32-11.39,11.91-7,18.08-10.1c3.11-1.52,6.23-3,9.46-4.28a49.5,49.5,0,0,1,4.94-1.68,17.49,17.49,0,0,1,2.58-.48,4.94,4.94,0,0,1,1.33,0,1.2,1.2,0,0,1,1,.75,1.09,1.09,0,0,0-1-.53,4.7,4.7,0,0,0-1.23.19,15.71,15.71,0,0,0-2.37.88c-1.54.7-3,1.49-4.51,2.34q-4.41,2.56-8.66,5.41c-5.69,3.75-11.22,7.74-16.71,11.76a372.67,372.67,0,0,0-31.46,25.69c-1.2,1.13-2.43,2.34-3.52,3.46a5.21,5.21,0,0,0-.83,2.46,36.33,36.33,0,0,0,.28,9c.82,6.46,2.28,13.09,3.67,19.76.71,3.34,1.46,6.69,2.15,10.09.34,1.7.67,3.42,1,5.17a35.35,35.35,0,0,1,.54,5.6,9.22,9.22,0,0,1-.19,1.82,5.16,5.16,0,0,1-.46,1.28,5.48,5.48,0,0,1-.58.82c-.48.59-1,1.21-1.44,1.85-.95,1.29-1.95,2.65-2.87,4.08a34.29,34.29,0,0,0-2.52,4.46c-.39.78-.66,1.54-1.14,2.41-.11.21-.21.43-.34.63l-.42.58-.42.58c-.15.18-.33.34-.49.51a14.88,14.88,0,0,1-4.59,3.08,34,34,0,0,1-5.08,1.68,103.89,103.89,0,0,1-10.3,1.81c-1.7.24-3.39.46-5.05.73s-3.31.53-4.84.93a13.37,13.37,0,0,0-4,1.55,2.35,2.35,0,0,0-1.29,2.22,10.55,10.55,0,0,0,1.09,3.74,6.27,6.27,0,0,0,2.29,2.7c1.71,1.06,4.94.32,7.92-.88s6.09-2.8,9.27-4.23a48.07,48.07,0,0,1,4.89-2,19.64,19.64,0,0,1,5.33-1.16,10,10,0,0,1,5.54,1.12,6.07,6.07,0,0,1,1.2.79,10.63,10.63,0,0,1,1.09.94,5.19,5.19,0,0,1,1.49,2.74,5.28,5.28,0,0,1-.42,3.1,11.77,11.77,0,0,1-1.46,2.44,29,29,0,0,1-3.7,3.88c-2.6,2.36-5.33,4.48-8,6.65a98.15,98.15,0,0,0-7.57,6.58,18.3,18.3,0,0,0-2.83,3.49,5,5,0,0,0-.61,1.58,2,2,0,0,0,.1,1.13,3.88,3.88,0,0,0,.92,1.18l.35.31.43.31c.28.2.56.43.85.61a5.36,5.36,0,0,0,3.32,1,6.26,6.26,0,0,0,3.38-1.5,23.43,23.43,0,0,0,3.26-3.27,98.33,98.33,0,0,0,5.82-8.21c1.9-2.86,3.74-5.8,6-8.56a22.31,22.31,0,0,1,3.81-3.84,8.2,8.2,0,0,1,5.4-1.92,11.15,11.15,0,0,1,1.46.21l1.34.37a11.83,11.83,0,0,1,2.53,1.23,12,12,0,0,1,3.82,4.11c1.84,3.26,2.49,6.84,3,10.28s.84,6.89,1.43,10.12,1.49,6.35,3.3,7.81a5.76,5.76,0,0,0,3.31,1.34,10.33,10.33,0,0,0,2,.07,3.06,3.06,0,0,0,1.33-.36,1.17,1.17,0,0,0,.51-.69,4.58,4.58,0,0,0,.2-1.67,21.87,21.87,0,0,0-.81-4.5c-.88-3.13-2.07-6.33-3.26-9.54s-2.45-6.44-3.47-9.8a26.36,26.36,0,0,1-1.11-5.27,9,9,0,0,1,.17-2.9,4.55,4.55,0,0,1,1.82-2.67,4.29,4.29,0,0,1,3.17-.71,9,9,0,0,1,2.73.93,33.13,33.13,0,0,1,4.48,2.91c5.52,4.24,10.59,8.91,16,12.82a46.65,46.65,0,0,0,4.11,2.69,18.69,18.69,0,0,0,4.12,1.87,4.78,4.78,0,0,0,3.29,0,3.74,3.74,0,0,0,1.18-.95,6.87,6.87,0,0,0,1-1.56,3.19,3.19,0,0,0,.16-2.9,9,9,0,0,0-2.51-3.09,66.37,66.37,0,0,0-8.18-5.54c-2.92-1.77-5.89-3.55-8.8-5.46a47.49,47.49,0,0,1-8.21-6.61,21.61,21.61,0,0,1-3.2-4.35,30.14,30.14,0,0,1-2-4.94c-1.08-3.3-2-6.61-3-9.93-1.88-6.64-3.7-13.31-5.22-20.09-.76-3.39-1.44-6.81-1.95-10.28a78.63,78.63,0,0,1-1-10.62,41.78,41.78,0,0,1,.28-5.63,13.48,13.48,0,0,1,.23-1.49l.15-.76.21-.81.23-.8c.09-.27.22-.58.34-.87s.23-.57.38-.87.38-.65.58-1l.31-.47a5.3,5.3,0,0,1,.45-.51,7.35,7.35,0,0,1,.85-.8,9.4,9.4,0,0,1,.77-.57c.25-.18.48-.33.71-.47a26,26,0,0,1,2.68-1.42,45.08,45.08,0,0,1,5.22-2,69.24,69.24,0,0,1,21.16-3,57.61,57.61,0,0,1,10.57,1.1,42.92,42.92,0,0,1,5.12,1.37A34.1,34.1,0,0,1,475.88,240.48Z"/></g><g id="Eye"><path d="M112.31,141.46A18.61,18.61,0,0,1,115.69,131a20.21,20.21,0,0,1,4-4.14,21.46,21.46,0,0,1,5.08-2.85,23.27,23.27,0,0,1,11.58-1.44,22,22,0,0,1,11,4.56,21.44,21.44,0,0,1,4.15,4.46,23,23,0,0,1,2.63,5.44,22.21,22.21,0,0,1,.57,11.77,20.81,20.81,0,0,1-5.58,10.09c-.34.34-.69.66-1,1l-1.13.87a24.88,24.88,0,0,1-2.38,1.53,18.78,18.78,0,0,1-5.2,1.84,22.8,22.8,0,0,0,7.77-6.9,19,19,0,0,0,2.34-4.42,19.27,19.27,0,0,0,1.19-4.74c.13-.8.11-1.61.17-2.41a21.18,21.18,0,0,0-.18-2.39,21.62,21.62,0,0,0-1.12-4.67,20.93,20.93,0,0,0-2.14-4.19,19.32,19.32,0,0,0-3.17-3.41c-4.84-4-11.92-5.17-18.24-3.45a23.34,23.34,0,0,0-4.57,1.9,20.32,20.32,0,0,0-4,3,19.28,19.28,0,0,0-3.09,4.09A25,25,0,0,0,112.31,141.46Z"/></g><g id="Iris"><path d="M129.43,147.52l6.86,1.4a7,7,0,1,1-1.07-5.33Z"/></g><g id="Eye_Ridge" data-name="Eye Ridge"><path d="M105.57,145.66a27.65,27.65,0,0,1-1.1-6,27.3,27.3,0,0,1,.21-6.25,28.57,28.57,0,0,1,1.62-6.16,27,27,0,0,1,3.15-5.7,23.37,23.37,0,0,1,4.67-4.7l1.39-1L117,115c1-.53,1.89-.89,2.83-1.34a57.94,57.94,0,0,1,11.78-4.06,40.77,40.77,0,0,1,12.62-.77,38.34,38.34,0,0,1,12,3.54,82,82,0,0,1,10.46,6.22c1.67,1.06,3.34,2.12,5.1,3a16.45,16.45,0,0,0,2.7,1.1,4.28,4.28,0,0,0,1.41.19,1,1,0,0,0,1-.84.91.91,0,0,1-.22.73,1.74,1.74,0,0,1-.69.41,4.29,4.29,0,0,1-.79.11,4,4,0,0,1-.78,0,13.9,13.9,0,0,1-3-.66,41.53,41.53,0,0,1-5.65-2.3A108,108,0,0,0,155,115.46a35.79,35.79,0,0,0-22.29-1.18,60.88,60.88,0,0,0-10.8,3.94c-.86.41-1.8.82-2.59,1.24l-1.15.62-1.09.74a23,23,0,0,0-3.93,3.6,29.35,29.35,0,0,0-3.1,4.52,34.58,34.58,0,0,0-2.23,5.17A48,48,0,0,0,105.57,145.66Z"/></g></g></g></svg>