<svg xmlns="http://www.w3.org/2000/svg" viewBox="0 0 250 250">
	<g id="Layer_2" data-name="Layer 2">
		<g id="Twitter">
			<path d="M224.77,0H25.23A25.22,25.22,0,0,0,0,25.23V224.77A25.22,25.22,0,0,0,25.23,250H224.77A25.22,25.22,0,0,0,250,224.77V25.23A25.22,25.22,0,0,0,224.77,0Zm-3.52,72.51a97.71,97.71,0,0,1-10.51,8.64C218.68,205.67,69.59,236.77,19,190.7c0,0,35.94,7.42,62.14-16.45-15.84-5.1-30.83-13.86-36.55-31.07,0,0,2.43.61,9.74.61,8.53,0,9.14-1.83,9.14-1.83-17.11.21-35.62-25.42-34.11-42.64.74,2.58,17.46,6.38,18.88,4.87-16.49-9.3-24.45-37.57-13.4-57.26,15.64,20.58,60.53,47.33,88.94,45.68-6.55-42.53,44.12-71.47,74.56-39.46.19,2.3,27.59-9.76,26.57-9.88.09,4.56-12.9,21.26-17.85,23.39,0,0,3.23.37,11.76-2.07S231,59.72,231,59.72,226.35,67.64,221.25,72.51Z"/>
		</g>
	</g>
</svg>