<svg xmlns="http://www.w3.org/2000/svg" viewBox="0 0 613.22 646.12"><defs><style>.cls-1{fill:#fff;}</style></defs><g id="Layer_2" data-name="Layer 2"><g id="Chameleon_Monochrome" data-name="Chameleon Monochrome"><g id="Body_copy" data-name="Body copy"><path id="Solid_Fill" data-name="Solid Fill" class="cls-1" d="M171.22,70.87s29-35.6,130.93-35.6c165.49,0,301.67,136.18,301.67,301.67S483.17,638.61,310.59,638.61C82.93,638.61,81,332,272,329.7c53.19-.63,113.38,33.68,119.46,107.39,3,36.16-11.36,73.39-65.16,101.36,30.17-15.68,50.9-41.41,42.23-90.5-7.24-41-49.52-77.68-85.67-79.64-137.69-7.44-146.29,207.55,31.37,207.55C387,575.86,447,515.94,447,443.13c0-106.91-85.37-189.15-272.41-144.5-50.41,12-91.4,70.29-107.69,81.75C-16.61,439.11-23,87.45,103.65,3.29,120.24,19.73,171.22,70.87,171.22,70.87Z"/><g id="Lines"><path d="M171,65.87c-6.18,2.52-2.21,1.19-3.17,1.3l.38-.42c.25-.29.49-.53.74-.79.49-.5,1-1,1.47-1.45,1-.94,2-1.82,3-2.66,2-1.68,4.13-3.26,6.28-4.7A108.67,108.67,0,0,1,193,49.45a142.52,142.52,0,0,1,14-6c2.37-.91,4.78-1.67,7.18-2.49s4.82-1.52,7.25-2.16c19.44-5.44,39.39-8.09,59.27-9.25,2.49-.18,5-.27,7.46-.36s5-.21,7.47-.23,5-.11,7.47-.11,5,0,7.51.07a300.33,300.33,0,0,1,30,2.1,305.49,305.49,0,0,1,58.65,13A313,313,0,0,1,578.54,196.63a307,307,0,0,1,33.57,115.6,324.61,324.61,0,0,1-.64,60.45,330.15,330.15,0,0,1-11.54,59.37,309.21,309.21,0,0,1-55.51,107.18,296.46,296.46,0,0,1-20.3,22.66,290.65,290.65,0,0,1-22.65,20.31,285.55,285.55,0,0,1-51.14,32.68A289.56,289.56,0,0,1,393.62,636a314.28,314.28,0,0,1-59.54,9.48c-10.05.64-20,.76-30.14.49-5-.14-10.09-.49-15.13-.94s-10.07-1.14-15.08-1.94a188.36,188.36,0,0,1-57.8-19,162.43,162.43,0,0,1-47.7-38,166.1,166.1,0,0,1-30.3-52.77,177,177,0,0,1-10-59.81,167.86,167.86,0,0,1,11.17-59.58,142.16,142.16,0,0,1,33.31-50.8,131.05,131.05,0,0,1,24.3-18.6A135.14,135.14,0,0,1,224.57,332a152.66,152.66,0,0,1,29.74-6.25c5-.56,10.07-.86,15.11-1a131.82,131.82,0,0,1,15.25.46,130.07,130.07,0,0,1,57.45,19.23,113.33,113.33,0,0,1,41.07,44.67,121.22,121.22,0,0,1,10.19,28.8,124.67,124.67,0,0,1,3,30.32,99.82,99.82,0,0,1-1.64,15.3,91.16,91.16,0,0,1-4.15,14.85,87.58,87.58,0,0,1-15.47,26.37c-6.67,7.7-14.75,13.9-23.13,19.2-4.18,2.68-8.48,5.12-12.76,7.53s-8.63,4.68-13,7a87.87,87.87,0,0,0,22-15.81,66.78,66.78,0,0,0,8.43-10.5,62.82,62.82,0,0,0,5.92-11.93,73,73,0,0,0,4.18-25.86,114.68,114.68,0,0,0-.91-13.09c-.31-2.17-.61-4.33-1-6.49-.18-1.08-.39-2.16-.63-3.23s-.37-2.18-.56-3.23a81.63,81.63,0,0,0-8.54-24.16A105.24,105.24,0,0,0,340,403a109,109,0,0,0-19.87-17,87.46,87.46,0,0,0-23.39-11.26,63.44,63.44,0,0,0-12.57-2.49l-1.59-.14-1.65-.08c-1.1-.07-2.2-.09-3.3-.12-2.2-.05-4.4,0-6.6,0a101.11,101.11,0,0,0-25.9,4.16,86.23,86.23,0,0,0-23.56,11.22,84.59,84.59,0,0,0-19,17.9,94.27,94.27,0,0,0-18.82,48.5,103.76,103.76,0,0,0,8.22,51.69A102.55,102.55,0,0,0,205.53,528a104.33,104.33,0,0,0,19,18.41c14.13,10.68,30.79,17.8,48.11,21.81A172.86,172.86,0,0,0,299,572.17c4.46.33,8.93.48,13.4.51a130.77,130.77,0,0,0,13.29-.54A124.16,124.16,0,0,0,376,556.28a132.33,132.33,0,0,0,62.21-81.62,128.78,128.78,0,0,0,3.92-25.91c.2-4.35.18-8.78,0-13.22s-.48-8.84-1-13.23a154.41,154.41,0,0,0-14.08-50.77,131.56,131.56,0,0,0-31.59-41.93A147.74,147.74,0,0,0,350,302.49a206.35,206.35,0,0,0-52.13-12.14,299.67,299.67,0,0,0-53.92-.47,410.65,410.65,0,0,0-53.55,7.83l-6.62,1.44-6.58,1.6c-2.23.53-4.31,1.09-6.42,1.74s-4.19,1.37-6.23,2.21a117.8,117.8,0,0,0-23.26,12.7,198.28,198.28,0,0,0-20.84,16.71q-5,4.51-9.74,9.22c-3.19,3.15-6.32,6.36-9.45,9.59C95,359.41,89,366.07,82.64,372.72c-3.19,3.33-6.35,6.66-10.12,9.91A37.46,37.46,0,0,1,69.44,385l-1.55,1.06c-.53.34-1.08.67-1.62,1a42.17,42.17,0,0,1-7,3.42,31,31,0,0,1-8,1.82,26.45,26.45,0,0,1-8.53-.63,27.78,27.78,0,0,1-7.82-3.27,35.38,35.38,0,0,1-6.35-5,55.79,55.79,0,0,1-9.09-12.11,96.22,96.22,0,0,1-6.15-13.12A167.62,167.62,0,0,1,5.69,331c-1.82-9.14-3.12-18.33-4-27.53A420.87,420.87,0,0,1,.35,248.29a515.6,515.6,0,0,1,5.36-54.81q2-13.62,5-27.08t6.55-26.74A377,377,0,0,1,35.57,87.74C43,71,51.81,54.64,62.71,39.73S86.63,11.28,102.23,1.16L104,0l1.43,1.47L121.8,18.28c5.46,5.6,11,11.13,16.46,16.64s11,11,16.49,16.24S165.7,61.43,171,65.87Zm.38,7.49L136.53,39.44,101.74,5.22l3.41.33A125.67,125.67,0,0,0,84.84,22.74,167.13,167.13,0,0,0,68,43.5,244.63,244.63,0,0,0,43,90.87,380,380,0,0,0,26.6,142.12q-3.23,13.08-5.67,26.33c-1.63,8.84-3,17.71-4.24,26.61a504.89,504.89,0,0,0-4.37,53.65,415,415,0,0,0,1.54,53.62c.84,8.87,2,17.69,3.68,26.37A167.27,167.27,0,0,0,24.34,354a85.25,85.25,0,0,0,5.18,11.62,44.35,44.35,0,0,0,7,9.77A19.7,19.7,0,0,0,45.4,381a17.38,17.38,0,0,0,10.22-.64,32.14,32.14,0,0,0,5.25-2.44l1.29-.77,1.28-.84a25.71,25.71,0,0,0,2.34-1.74c3.16-2.61,6.34-5.8,9.49-9l9.48-9.73q4.78-4.87,9.68-9.7c13.09-12.82,27.2-24.93,43-34.65,3.95-2.43,8-4.69,12.2-6.73a117.34,117.34,0,0,1,12.87-5.45c2.2-.78,4.44-1.48,6.68-2.13s4.56-1.18,6.77-1.64l6.69-1.45,6.7-1.39c8.94-1.78,17.92-3.42,27-4.79s18.11-2.41,27.22-3.14a312.38,312.38,0,0,1,54.88,0,212.58,212.58,0,0,1,53.88,11.57,155.55,155.55,0,0,1,48.11,27.55,139.67,139.67,0,0,1,34.34,43.86,161.28,161.28,0,0,1,15.61,53.5q.81,6.94,1.09,13.91c.21,4.64.27,9.29.08,14a134.72,134.72,0,0,1-4.09,27.88,133,133,0,0,1-25.08,50,138.58,138.58,0,0,1-68.7,46.2,135.67,135.67,0,0,1-27.37,5.21,137.7,137.7,0,0,1-13.91.51c-4.61,0-9.22-.23-13.81-.59a178.81,178.81,0,0,1-27.38-4.19c-18-4.25-35.43-11.77-50.28-23.09a111.23,111.23,0,0,1-34.47-43.33,109.71,109.71,0,0,1-8.93-54.7,101.09,101.09,0,0,1,19.87-51.84,91.21,91.21,0,0,1,20.31-19.49A93.5,93.5,0,0,1,243,369.42a109.13,109.13,0,0,1,27.66-4.88c2.33-.1,4.67-.17,7-.14,1.17,0,2.34,0,3.5.07l1.76.06,1.8.13a71.44,71.44,0,0,1,14.14,2.56,95.9,95.9,0,0,1,25.72,11.84,117.64,117.64,0,0,1,21.71,18,113.71,113.71,0,0,1,16.86,22.72,91.5,91.5,0,0,1,10,26.82,55.15,55.15,0,0,1,.9,7c.21,2.34.31,4.69.41,7a102.65,102.65,0,0,1-.59,14.13A76.8,76.8,0,0,1,366,501.68a69.18,69.18,0,0,1-7.56,11.67,72.11,72.11,0,0,1-9.49,9.95,111.91,111.91,0,0,1-22.62,15.15,112.31,112.31,0,0,0,24-16.71,136.7,136.7,0,0,0,19-21.57,117.93,117.93,0,0,0,7.57-11.88,82.81,82.81,0,0,0,5.64-12.8A88.52,88.52,0,0,0,387.17,448a105.73,105.73,0,0,0-.79-14.07A130.74,130.74,0,0,0,384,420a111.43,111.43,0,0,0-9.53-26.45,104.55,104.55,0,0,0-37.58-40.86,119.43,119.43,0,0,0-53.12-17.57,116.55,116.55,0,0,0-14.12-.35c-4.76.15-9.51.47-14.22,1a142.92,142.92,0,0,0-27.67,6.07,121.64,121.64,0,0,0-47.73,29A131.19,131.19,0,0,0,149.82,418,156.12,156.12,0,0,0,140,473.47,163,163,0,0,0,149.81,529a153,153,0,0,0,28.47,48.35,148.93,148.93,0,0,0,44.1,34.37,174.19,174.19,0,0,0,53.63,17c4.68.69,9.38,1.26,14.11,1.65s9.46.65,14.21.72a295.81,295.81,0,0,0,84.88-11.15A277.28,277.28,0,0,0,442,598.58a282.8,282.8,0,0,0,86.91-71.9,291.18,291.18,0,0,0,52.4-100.14,311.75,311.75,0,0,0,11.14-55.85q1.51-14.19,1.77-28.49c.2-9.53,0-19-.76-28.48a288.74,288.74,0,0,0-30.55-109.05,301.94,301.94,0,0,0-30.53-48.17A298.08,298.08,0,0,0,394.69,57.75a290.29,290.29,0,0,0-55.75-13.29A285.65,285.65,0,0,0,310.31,42l-7.19-.17c-2.4,0-4.82,0-7.23,0s-4.82,0-7.23.12-4.82.1-7.23.24c-9.62.42-19.22,1.21-28.72,2.5a265.77,265.77,0,0,0-28.15,5.39c-2.33.54-4.6,1.21-6.91,1.8s-4.57,1.31-6.82,2.06c-4.52,1.43-9,3-13.37,4.82a120.46,120.46,0,0,0-12.79,6c-2.08,1.12-4.07,2.35-6,3.61-1,.64-1.92,1.32-2.86,2-.48.34-.93.69-1.37,1l-.65.53-.32.26C172.78,72.44,174.6,71.94,171.35,73.36Z"/></g><g id="Head_Line" data-name="Head Line"><path d="M178.69,64.19c6.77,7.92,14.44,15.88,21.59,24.45a161.58,161.58,0,0,1,19.23,27.75,96.14,96.14,0,0,1,10,64.68,98.13,98.13,0,0,0-2.13-32.16,95,95,0,0,0-12.85-29.4A153.1,153.1,0,0,0,194,94.76c-7.6-7.63-15.75-14.72-23.57-22.29Z"/></g></g><g id="Eye_copy" data-name="Eye copy"><path id="Pupil" d="M111.49,184.9h17.07a17.07,17.07,0,1,1-9.81-15.45Z"/><path d="M187.51,154.73a72.7,72.7,0,0,1-17.44,83.93,61.63,61.63,0,0,1-11,7.9,56.86,56.86,0,0,1-25.8,7,87.25,87.25,0,0,1-25.83-3.34,126,126,0,0,1-12.14-4,108.91,108.91,0,0,1-11.54-5.36A114.44,114.44,0,0,1,63,226.23l1.71-1.82A79,79,0,0,0,108.28,246a74.09,74.09,0,0,0,24.08-.66,77.38,77.38,0,0,0,21.88-7.56l2.5-1.4,2.41-1.54,2.32-1.67c.76-.59,1.51-1.21,2.27-1.82a66.36,66.36,0,0,0,8.27-8.24,70.65,70.65,0,0,0,6.83-9.57,75.83,75.83,0,0,0,5.2-10.68C189.94,188,191,171.16,187.51,154.73Z"/><g id="Eye_Brow" data-name="Eye Brow"><path d="M152.52,203a61.7,61.7,0,0,0,4.18-7.37,51.47,51.47,0,0,0,3-7.86,47.8,47.8,0,0,0,1.87-16.43A46.08,46.08,0,0,0,149,142.06a43.36,43.36,0,0,0-12.77-9.4A44.86,44.86,0,0,0,121,128.6a50.6,50.6,0,0,0-15.76,1.06,49.14,49.14,0,0,0-14.55,5.72A30.72,30.72,0,0,0,80,145.46c-2.45,4-3.4,8.82-3.41,14a118.94,118.94,0,0,0,1.53,16.23,155.42,155.42,0,0,1,1.73,17.47,54.65,54.65,0,0,1-2.5,18.43,45.42,45.42,0,0,1-4,8.69,41.91,41.91,0,0,1-5.73,7.66,27.57,27.57,0,0,1-4,3.34,16.63,16.63,0,0,1-5.36,2.39,12.22,12.22,0,0,1-6.43-.24,13.23,13.23,0,0,1-5-3,22.82,22.82,0,0,1-5.29-8,49.91,49.91,0,0,1-2.6-8.48l.23-.15c2.3,1.95,4.22,4.16,6.2,6.08a26.83,26.83,0,0,0,5.9,4.68,6.45,6.45,0,0,0,2.56.78,4.13,4.13,0,0,0,2-.41,8.79,8.79,0,0,0,2.2-1.42,19.05,19.05,0,0,0,2.35-2.33,32.44,32.44,0,0,0,2.3-2.87c.73-1,1.45-2,2.08-3.11a35,35,0,0,0,3.11-6.75A45.11,45.11,0,0,0,70,193.31a143.39,143.39,0,0,0-1.43-16.38,114.08,114.08,0,0,1-1.26-17.66,43.48,43.48,0,0,1,1.26-9.42,31.12,31.12,0,0,1,3.91-9.07,39.23,39.23,0,0,1,14.05-12.71,55.58,55.58,0,0,1,17.23-6,58.7,58.7,0,0,1,18.09-.49,53.13,53.13,0,0,1,8.88,1.95,46.49,46.49,0,0,1,8.37,3.59A49.16,49.16,0,0,1,153,138.5a48.21,48.21,0,0,1,8.84,15.43,49.31,49.31,0,0,1,2.8,17.35,49.92,49.92,0,0,1-3.37,17A51.92,51.92,0,0,1,152.52,203Z"/></g></g><g id="Legs_copy" data-name="Legs copy"><g id="Solid_Fill_copy_2" data-name="Solid Fill copy 2"><path id="Back_Leg_Gradient_Fill" data-name="Back Leg Gradient Fill" class="cls-1" d="M486.77,509.49S537.5,463.22,570,390c9.65-21.72-12.22-51.85-21.23-53.16-31.46-4.56-39.57,23.21-118,59.8,0,0-42.22-28.76-65.74-16.08s-45.78,4.52-28.42,35.18c11.85,20.91,39,54.19,103.82,27.12,94.22-39.37,89.62-40.14,89.62-40.14l-73,35s-8,21,0,35C478.17,509.69,486.77,509.49,486.77,509.49Z"/><path id="Front_Leg_Gradient_Fill" data-name="Front Leg Gradient Fill" class="cls-1" d="M246.91,206.05c47.39-15.72,53.17-20.31,67.88-17.19,7.34,1.55,24.77,9.27,28.28,15.89,12.29,23.13-19.92,34.61-47.93,101.41,0,0,44.15,26.72,33.66,47.07S333,389,291.86,381.61c-28.09-5-59.38-7.54-49.86-64.64,6-36,13.61-55.93,13.61-55.93l-46.6,1.5s-5.21-16.7-1.59-32.39C210,219.06,237.69,209.11,246.91,206.05Z"/></g><g id="Back_Leg_Lines" data-name="Back Leg Lines"><path d="M486.77,509.49c9.63-10.58,18.66-21.6,27.35-32.86s16.93-22.84,24.66-34.74q5.81-8.92,11.1-18.16c3.53-6.15,6.91-12.39,10.07-18.74,1.62-3.15,3.11-6.38,4.64-9.57l2.19-4.84a29.38,29.38,0,0,0,1.83-4.63c1.81-6.2,1.14-13.08-.86-19.51a58.68,58.68,0,0,0-9.39-18,36.32,36.32,0,0,0-6.87-7.06,12.14,12.14,0,0,0-1.84-1.14,4.86,4.86,0,0,0-.83-.34,1.57,1.57,0,0,0-.33-.08l-.17,0-.32,0a42.06,42.06,0,0,0-5-.38,34,34,0,0,0-9.75,1.23,45.22,45.22,0,0,0-9.29,3.81,180.6,180.6,0,0,0-17.66,11.42c-11.65,8.25-23.59,16.38-36,23.66s-25.17,14-38.19,20l-1.59.75-1.51-1c-2.87-1.9-6-3.75-9.1-5.48s-6.29-3.37-9.51-4.87a100.3,100.3,0,0,0-19.9-7.08c-6.75-1.51-13.79-2.06-20-.19a22.57,22.57,0,0,0-2.26.82c-.36.16-.73.31-1.08.5l-1.14.58c-1.69.89-3.42,1.7-5.16,2.44a100.09,100.09,0,0,1-10.62,3.73c-3.53,1.06-7.08,1.95-10.28,3.09a19,19,0,0,0-4.19,2,5,5,0,0,0-2.09,2.63,8.47,8.47,0,0,0,0,3.95,26.81,26.81,0,0,0,1.46,4.66,77.31,77.31,0,0,0,4.72,9.35,83.54,83.54,0,0,0,12.55,16.86,58.3,58.3,0,0,0,36.78,17.66,80.69,80.69,0,0,0,21-.81,123.46,123.46,0,0,0,20.65-5.37c3.38-1.17,6.68-2.49,10-3.88L451,435.69l20.13-8.41,10.07-4.19L491.29,419l20.22-8.17,10.11-4.11c1.68-.69,3.36-1.38,5-2.11l2.49-1.11c.41-.19.82-.39,1.22-.6.2-.11.4-.21.59-.34s.44-.22.48-.43c0,.22-.26.37-.41.52s-.36.29-.54.43c-.37.28-.74.54-1.12.8-.76.51-1.53,1-2.32,1.48-1.56.95-3.14,1.88-4.73,2.76-3.2,1.77-6.41,3.51-9.67,5.16s-6.5,3.3-9.78,4.88-6.56,3.19-9.87,4.7l-9.93,4.56-10,4.4c-6.66,2.94-13.37,5.76-20.07,8.61l-10.05,4.26c-3.36,1.42-6.81,2.82-10.29,4.06a128.41,128.41,0,0,1-21.51,5.74,86.07,86.07,0,0,1-22.46,1,64.06,64.06,0,0,1-40.4-19.08,89,89,0,0,1-13.58-18,84.68,84.68,0,0,1-5.12-10.11,33,33,0,0,1-1.79-5.75,14.35,14.35,0,0,1,.1-6.85,10.56,10.56,0,0,1,1.77-3.41,12.15,12.15,0,0,1,2.64-2.46,24.34,24.34,0,0,1,5.6-2.75c3.66-1.31,7.17-2.2,10.6-3.24a92.47,92.47,0,0,0,10-3.52c1.59-.68,3.16-1.42,4.69-2.23l1.28-.66c.46-.25.93-.44,1.4-.65.94-.4,1.9-.74,2.87-1.05a37.1,37.1,0,0,1,11.76-1.47,59.9,59.9,0,0,1,11.41,1.49,107,107,0,0,1,21.18,7.45q5.06,2.36,9.92,5c3.26,1.81,6.4,3.67,9.59,5.79l-3.11-.25c12.87-6,25.49-12.5,37.72-19.67s24-15.08,35.66-23.31a185.63,185.63,0,0,1,18.33-11.76,51.65,51.65,0,0,1,10.52-4.27,40.29,40.29,0,0,1,11.44-1.37,46.45,46.45,0,0,1,5.68.48l.35,0,.49.09a8.39,8.39,0,0,1,1,.25,12.59,12.59,0,0,1,1.65.68,18.25,18.25,0,0,1,2.7,1.69,42.13,42.13,0,0,1,8,8.26,64.34,64.34,0,0,1,10.19,19.87,47.61,47.61,0,0,1,2,11.18,34.28,34.28,0,0,1-1.29,11.53,34.9,34.9,0,0,1-2.12,5.32l-2.26,4.9c-1.58,3.23-3.11,6.49-4.77,9.68-3.25,6.42-6.72,12.72-10.34,18.93S547,438.66,543,444.65a343.07,343.07,0,0,1-25.82,34.47c-2.35,2.72-4.72,5.41-7.15,8.06s-4.92,5.22-7.42,7.79A196,196,0,0,1,486.77,509.49Z"/></g><g id="Front_Leg_Lines" data-name="Front Leg Lines"><path d="M246.91,206.05q12.66-5.27,25.59-9.89a260,260,0,0,1,26.35-8.09c2.26-.52,4.54-1,6.88-1.36a38.1,38.1,0,0,1,7.27-.54,17.24,17.24,0,0,1,2,.19c.68.1,1.26.23,1.87.36,1.2.27,2.35.59,3.49.93,2.28.69,4.5,1.48,6.7,2.35a69.32,69.32,0,0,1,12.84,6.47,28.23,28.23,0,0,1,3.07,2.33,17.87,17.87,0,0,1,2.92,3.19c.22.33.47.73.65,1l.46.85c.29.58.58,1.17.84,1.78a22.21,22.21,0,0,1,1.74,12.08,29.55,29.55,0,0,1-2.22,7.6,78.56,78.56,0,0,1-7.3,12.47c-2.65,3.82-5.36,7.5-8,11.19s-5.24,7.39-7.79,11.11q-7.64,11.17-14.14,23c-4.42,7.86-8.38,16-12.13,24.2l-1.24-3.79h0c2.59,1.55,5,3.13,7.4,4.8s4.76,3.41,7.05,5.23a100.8,100.8,0,0,1,13,12.11,54,54,0,0,1,5.5,7.34,31,31,0,0,1,3.83,8.9,19,19,0,0,1-.34,10.45,20.71,20.71,0,0,1-1,2.47c-.31.62-.58,1.18-.84,1.78a33.38,33.38,0,0,0-1.38,3.65,54.25,54.25,0,0,0-1.81,7.83,67.42,67.42,0,0,1-1.82,8.95,15,15,0,0,1-2.66,5,12.94,12.94,0,0,1-4.86,3.6,20.1,20.1,0,0,1-5.14,1.38,36.35,36.35,0,0,1-4.81.33A102.11,102.11,0,0,1,291,385.52c-5.58-1-11.29-1.91-17.06-3.22a68.3,68.3,0,0,1-17.16-6.05,38.66,38.66,0,0,1-7.8-5.47,34.42,34.42,0,0,1-6.18-7.43,44.57,44.57,0,0,1-6-17.74,84.69,84.69,0,0,1-.24-18c.24-3,.6-5.89,1-8.79s1-5.73,1.45-8.59c1.06-5.67,2.12-11.35,3.46-17s2.81-11.22,4.54-16.75a135.73,135.73,0,0,1,6.16-16.36h0l2.42,3.39L232.35,263c-3.9-.12-7.79-.32-11.68-.47s-7.78-.1-11.66,0c3.88-.11,7.76-.3,11.64-.71s7.74-.85,11.62-1.22l23.26-2.07,3.47-.31-1.05,3.7h0c-1.4,5.37-2.74,10.94-4,16.45s-2.48,11.05-3.67,16.59S248,306.08,247,311.66c-.47,2.79-1,5.62-1.41,8.35s-.75,5.51-1,8.26a76.87,76.87,0,0,0,.2,16.28,36.64,36.64,0,0,0,4.83,14.6,28.36,28.36,0,0,0,11,10.08,60.56,60.56,0,0,0,15.16,5.3c5.4,1.24,11,2.12,16.68,3.14a103.41,103.41,0,0,0,16.33,1.91,18.72,18.72,0,0,0,6.91-1,5.25,5.25,0,0,0,2-1.41,7.53,7.53,0,0,0,1.31-2.51,64.74,64.74,0,0,0,1.64-7.86,62.27,62.27,0,0,1,2.16-8.85,43.93,43.93,0,0,1,1.71-4.37c.32-.7.69-1.43,1-2.09a13.61,13.61,0,0,0,.64-1.47,12,12,0,0,0,.24-6.49,23.75,23.75,0,0,0-2.83-6.86,46.68,46.68,0,0,0-4.67-6.48A93.21,93.21,0,0,0,307,318.69a144.41,144.41,0,0,0-13.48-9.91h0l-2.22-1.24,1-2.56a269.45,269.45,0,0,1,11.36-25.27c4.28-8.2,9-16.19,14-23.92s10.58-15.16,15.65-22.55A71.18,71.18,0,0,0,340,222.15a21.25,21.25,0,0,0,1.65-5.5,14.92,14.92,0,0,0-.21-5.33,20,20,0,0,0-.81-2.68c-.17-.45-.36-.9-.56-1.35l-.31-.67-.23-.43a16.67,16.67,0,0,0-3.84-3.91,66.32,66.32,0,0,0-11-6.83c-2-1-4-1.89-6-2.69a24.69,24.69,0,0,0-5.93-1.74,34.27,34.27,0,0,0-6.4,0c-2.19.18-4.42.48-6.63.83A257.58,257.58,0,0,0,273.08,198Q259.91,201.69,246.91,206.05Z"/></g></g></g></g></svg>